<?xml version="1.0" encoding="UTF-8"?>
<svg id="Layer_1" data-name="Layer 1" xmlns="http://www.w3.org/2000/svg" width="2994.4" height="2806.5" viewBox="0 0 2994.4 2806.5">
  <defs>
    <style>
      .cls-1 {
        fill: #fff;
      }
    </style>
  </defs>
  <path class="cls-1" d="m8.1,0C305.2,0,602.3,0,899.4,0c2.2,3.6,4.2,7.4,6.7,10.7,248.8,332.7,497.6,665.3,746.4,998,1.3,1.7,2.9,3.3,4.6,5.2,3.2-3.4,6-6.3,8.7-9.2,70.8-76.4,141.5-152.9,212.3-229.3,106.5-115.1,213.1-230.2,319.6-345.3,129.2-139.5,258.3-279,387.4-418.6,3.3-3.6,6.1-7.6,9.1-11.4,87.3,0,174.5,0,261.8,0-1.5,2.5-2.7,5.3-4.6,7.4-129.1,139.6-258.3,279.1-387.4,418.6-227.8,246.1-455.5,492.1-683.3,738.2-2.2,2.4-4.3,4.9-6.4,7.3,2.2,3,4,5.5,5.8,7.9,117.8,157.5,235.6,315.1,353.4,472.6,269.9,360.9,539.8,721.8,809.7,1082.8,17.1,22.9,34.1,46,51.1,69-3.3,4.4-8,2.1-11.9,2.1-288.4.1-576.7.1-865.1.1-4.3,0-8.7.1-13,.2-31-41.4-62.1-82.8-93.1-124.2-58.9-78.8-117.8-157.5-176.7-236.3-60.3-80.6-120.6-161.2-180.9-241.9-58.1-77.6-116.1-155.3-174.2-233-32.5-43.4-65-86.9-97.5-130.3-26.8-35.8-53.5-71.6-80.3-107.4-7-9.3-14-18.6-21.6-28.7-1.9,2.3-3.3,4.2-4.9,5.9-76,82.1-152,164.2-228,246.3-221.7,239.5-443.4,478.9-665,718.4-40.3,43.5-80.4,87.1-120.6,130.6-29.9.1-59.9.3-89.8.3-53.9,0-107.8,0-161.7,0-3.3,0-6.7-1.3-10-1.9,1.9-1.9,3.7-3.8,5.6-5.7,59.9-64.7,119.8-129.4,179.7-194.1,91.1-98.4,182.2-196.9,273.3-295.3,91.3-98.7,182.7-197.3,274-296,91.3-98.7,182.7-197.3,274-296,49.5-53.5,99.1-107,148.6-160.6q7.8-8.4.6-18c-9.5-12.7-19-25.4-28.5-38.1-59-78.9-117.9-157.7-176.9-236.6-59.1-79-118.2-158.1-177.3-237.1-59.1-79-118.2-157.9-177.2-236.9-58.5-78.2-117-156.4-175.5-234.7-58.1-77.7-116.2-155.4-174.3-233.1-59.9-80.1-119.7-160.1-179.6-240.1C48.2,57,29.8,32.6,11.6,7.9,10,5.7,5.7,4.2,8.1,0Zm385.1,195.6c1.8,2.4,3.7,4.7,5.5,7.1,172.6,230.8,345.2,461.7,517.9,692.5,240.8,322,481.6,644,722.4,965.9,187.2,250.3,374.4,500.5,561.6,750.8,3.7.7,7.4,2.1,11.1,2.1,129.3.1,258.6,0,387.9,0,3,0,6-.1,8.9-.5.3,0,.4-1.9.7-2.9-54.1-72.4-108.3-144.7-162.4-217.1-58.9-78.8-117.8-157.6-176.7-236.3-59.5-79.6-119-159.1-178.6-238.7-58.9-78.8-117.8-157.6-176.7-236.3-60.1-80.3-120.2-160.6-180.3-241-58.3-77.9-116.6-155.9-174.9-233.8-59.9-80.1-119.8-160.1-179.6-240.2-58.7-78.5-117.4-156.9-176.1-235.4-60.3-80.6-120.5-161.2-180.8-241.8-50.3-67.1-100.8-134.1-151.1-201.2-23.6-31.5-46.9-63.3-70.4-95-3.4-.7-6.8-2.1-10.2-2.1-129.8-.1-259.5,0-389.3,0-3,0-5.9.4-8.8.7-.1,0,0,1.9,0,3Z"/>
</svg>