<?xml version="1.0" encoding="utf-8"?>
<!-- Generator: Adobe Illustrator 26.1.0, SVG Export Plug-In . SVG Version: 6.00 Build 0)  -->
<svg version="1.1" id="Layer_1" xmlns="http://www.w3.org/2000/svg" xmlns:xlink="http://www.w3.org/1999/xlink" x="0px" y="0px"
	 viewBox="0 0 100 100" style="enable-background:new 0 0 100 100;" xml:space="preserve">
<style type="text/css">
	.st0{fill:#29B6F6;}
	.st1{fill:#231F20;}
</style>
<g>
	<path class="st0" d="M98.81,11.36L83.76,89.04c0,0-0.81,3.66-4.88,3.66c-2.44,0-3.66-1.22-3.66-1.22L41.87,64.23L25.6,56.1
		L4.86,50.41c0,0-3.66-1.22-3.66-4.07c0-2.44,3.66-3.66,3.66-3.66L91.48,8.11c0,0,2.85-0.81,4.47-0.81c1.22,0,2.44,0.41,2.44,2.03
		C98.81,10.55,98.81,11.36,98.81,11.36z"/>
	<path class="st0" d="M54.07,74.4L40.24,88.23c0,0-0.41,0.41-1.22,0.41c-0.41,0-0.41,0-0.81,0l4.07-24.4L54.07,74.4z"/>
	<g>
		<path class="st1" d="M37.8,88.61c-0.25,0-1.56-0.21-2.8-4.33c-1.2-4.01-9.67-27.81-9.76-28.04c-0.06-0.17,0.01-0.36,0.16-0.45
			l53.69-32.13c0.29-0.31,0.75-0.5,1.26-0.5c0.69,0,1.44,0.35,2.05,0.96c0.44,0.44,0.63,1.01,0.53,1.61
			c-0.1,0.59-0.47,1.13-0.98,1.4L42.21,64.02L38.16,88.3C38.14,88.47,37.98,88.61,37.8,88.61z"/>
		<path class="st0" d="M80.35,23.53c0.62,0,1.28,0.35,1.78,0.85c0.81,0.81,0.41,2.03-0.41,2.44L41.87,63.83l-4.07,24.4
			c0,0-1.22,0-2.44-4.07C34.14,80.1,25.6,56.1,25.6,56.1l53.69-32.13C79.59,23.66,79.96,23.53,80.35,23.53 M80.35,22.78
			c-0.58,0-1.1,0.2-1.52,0.59L25.21,55.46c-0.31,0.18-0.44,0.56-0.32,0.9c0.09,0.24,8.55,24.02,9.75,28.03
			c1.25,4.15,2.62,4.6,3.16,4.6c0.37,0,0.68-0.27,0.74-0.63l4.03-24.15l39.6-36.77c0.59-0.34,1.02-0.96,1.13-1.65
			c0.12-0.71-0.12-1.42-0.63-1.93C81.98,23.17,81.14,22.78,80.35,22.78L80.35,22.78z"/>
	</g>
</g>
</svg>
