<?xml version="1.0" encoding="UTF-8"?>
<svg id="_圖層_1" data-name="圖層 1" xmlns="http://www.w3.org/2000/svg" viewBox="0 0 18.38 18.38">
  <defs>
    <style>
      .cls-1 {
        fill: #fdfffe;
        stroke: #000;
        stroke-miterlimit: 10;
        stroke-width: .5px;
      }
    </style>
  </defs>
  <rect class="cls-1" x=".25" y=".25" width="17.88" height="17.88" rx="2.23" ry="2.23"/>
  <g>
    <path d="M4.86,7.24h-.03l-1.57,.75-.32-1.44,2.17-1.01h1.59V13.74h-1.86V7.24Z"/>
    <path d="M8.34,11.59c0-.99,.57-1.67,1.47-2.06v-.04c-.8-.4-1.19-1.07-1.19-1.79,0-1.39,1.25-2.31,2.89-2.31,1.92,0,2.72,1.11,2.72,2.11,0,.71-.38,1.4-1.19,1.81v.04c.8,.3,1.5,.99,1.5,2.05,0,1.49-1.25,2.49-3.16,2.49-2.08,0-3.04-1.17-3.04-2.29Zm4.25-.06c0-.72-.53-1.15-1.29-1.35-.63,.18-1,.63-1,1.23-.01,.59,.44,1.15,1.16,1.15,.68,0,1.12-.44,1.12-1.02Zm-2.16-3.89c0,.56,.51,.91,1.16,1.11,.44-.13,.83-.53,.83-1.05s-.29-1.01-1-1.01c-.66,0-1,.43-1,.95Z"/>
  </g>
  <path d="M15.28,2.57v1.09h1.04v.47h-1.04v1.1h-.49v-1.1h-1.04v-.47h1.04v-1.09h.49Z"/>
</svg>