<?xml version="1.0" encoding="utf-8"?>
<!-- Generator: Adobe Illustrator 26.1.0, SVG Export Plug-In . SVG Version: 6.00 Build 0)  -->
<svg version="1.1" id="Layer_1" xmlns="http://www.w3.org/2000/svg" xmlns:xlink="http://www.w3.org/1999/xlink" x="0px" y="0px"
	 viewBox="0 0 100 100" style="enable-background:new 0 0 100 100;" xml:space="preserve">
<style type="text/css">
	.st0{fill:url(#SVGID_1_);}
	.st1{fill:url(#SVGID_00000005946215337492899140000007563010733604209542_);}
	.st2{fill:#FFFFFF;}
</style>
<g>
	
		<radialGradient id="SVGID_1_" cx="37.4348" cy="2.943" r="122.1265" gradientTransform="matrix(1 0 0 -1 0 102)" gradientUnits="userSpaceOnUse">
		<stop  offset="0" style="stop-color:#FFDD55"/>
		<stop  offset="0.328" style="stop-color:#FF543F"/>
		<stop  offset="0.348" style="stop-color:#FC5245"/>
		<stop  offset="0.504" style="stop-color:#E64771"/>
		<stop  offset="0.643" style="stop-color:#D53E91"/>
		<stop  offset="0.761" style="stop-color:#CC39A4"/>
		<stop  offset="0.841" style="stop-color:#C837AB"/>
	</radialGradient>
	<path class="st0" d="M77.25,98.93l-54.4,0.05C10.88,99,1.08,89.22,1.07,77.25l-0.05-54.4C1,10.88,10.78,1.08,22.75,1.07l54.4-0.05
		C89.12,1,98.92,10.78,98.93,22.75l0.05,54.4C99,89.12,89.22,98.92,77.25,98.93z"/>
	
		<radialGradient id="SVGID_00000049925781952524974830000002181139048597784744_" cx="16.779" cy="-67.6953" r="81.0921" gradientTransform="matrix(1 0 0 -0.6663 0 -45.3149)" gradientUnits="userSpaceOnUse">
		<stop  offset="0" style="stop-color:#4168C9"/>
		<stop  offset="0.999" style="stop-color:#4168C9;stop-opacity:0"/>
	</radialGradient>
	<path style="fill:url(#SVGID_00000049925781952524974830000002181139048597784744_);" d="M77.25,98.93l-54.4,0.05
		C10.88,99,1.08,89.22,1.07,77.25l-0.05-54.4C1,10.88,10.78,1.08,22.75,1.07l54.4-0.05C89.12,1,98.92,10.78,98.93,22.75l0.05,54.4
		C99,89.12,89.22,98.92,77.25,98.93z"/>
	<path class="st2" d="M50,69.04c-10.5,0-19.04-8.54-19.04-19.04S39.5,30.96,50,30.96S69.04,39.5,69.04,50S60.5,69.04,50,69.04z
		 M50,36.4c-7.5,0-13.6,6.1-13.6,13.6S42.5,63.6,50,63.6S63.6,57.5,63.6,50S57.5,36.4,50,36.4z"/>
	<circle class="st2" cx="70.4" cy="29.6" r="4.08"/>
	<path class="st2" d="M66.32,85.36H33.68c-10.5,0-19.04-8.54-19.04-19.04V33.68c0-10.5,8.54-19.04,19.04-19.04h32.64
		c10.5,0,19.04,8.54,19.04,19.04v32.64C85.36,76.82,76.82,85.36,66.32,85.36z M33.68,20.08c-7.5,0-13.6,6.1-13.6,13.6v32.64
		c0,7.5,6.1,13.6,13.6,13.6h32.64c7.5,0,13.6-6.1,13.6-13.6V33.68c0-7.5-6.1-13.6-13.6-13.6H33.68z"/>
</g>
</svg>
